HIERARCHY
ROOT Hips
{
    OFFSET 0.000000 0.000000 0.000000
    CHANNELS 6 Xposition Yposition Zposition Zrotation Xrotation Yrotation
    JOINT Spine
    {
        OFFSET -0.000000 0.072775 0.000000
        CHANNELS 3 Zrotation Xrotation Yrotation
        JOINT Spine1
        {
            OFFSET -0.000000 0.195886 0.000000
            CHANNELS 3 Zrotation Xrotation Yrotation
            JOINT Neck
            {
                OFFSET -0.000000 0.195082 0.017735
                CHANNELS 3 Zrotation Xrotation Yrotation
                JOINT Head
                {
                    OFFSET -0.000000 0.124250 -0.017750
                    CHANNELS 3 Zrotation Xrotation Yrotation
                    End Site
                    {
                        OFFSET -0.000000 0.177500 0.000000
                    }
                }
            }
            JOINT LeftShoulder
            {
                OFFSET 0.035772 0.183979 -0.000787
                CHANNELS 3 Zrotation Xrotation Yrotation
                JOINT LeftArm
                {
                    OFFSET 0.089258 0.000000 0.000000
                    CHANNELS 3 Zrotation Xrotation Yrotation
                    JOINT LeftForeArm
                    {
                        OFFSET 0.285064 0.000000 0.000000
                        CHANNELS 3 Zrotation Xrotation Yrotation
                        JOINT LeftHand
                        {
                            OFFSET 0.227012 0.000000 0.000000
                            CHANNELS 3 Zrotation Xrotation Yrotation
                            JOINT LeftHandThumb1
                            {
                                OFFSET 0.022188 -0.013313 0.044375
                                CHANNELS 3 Zrotation Xrotation Yrotation
                                JOINT LeftHandThumb2
                                {
                                    OFFSET 0.026625 0.000000 0.000000
                                    CHANNELS 3 Zrotation Xrotation Yrotation
                                    JOINT LeftHandThumb3
                                    {
                                        OFFSET 0.026625 0.000000 0.000000
                                        CHANNELS 3 Zrotation Xrotation Yrotation
                                        End Site
                                        {
                                            OFFSET 0.023630 0.000000 0.000000
                                        }
                                    }
                                }
                            }
                            JOINT LeftHandIndex1
                            {
                                OFFSET 0.079875 0.000000 0.031063
                                CHANNELS 3 Zrotation Xrotation Yrotation
                                JOINT LeftHandIndex2
                                {
                                    OFFSET 0.044375 0.000000 0.000000
                                    CHANNELS 3 Zrotation Xrotation Yrotation
                                    JOINT LeftHandIndex3
                                    {
                                        OFFSET 0.022188 0.000000 0.000000
                                        CHANNELS 3 Zrotation Xrotation Yrotation
                                        End Site
                                        {
                                            OFFSET 0.019691 0.000000 0.000000
                                        }
                                    }
                                }
                            }
                            JOINT LeftHandMiddle1
                            {
                                OFFSET 0.079875 0.000000 0.010295
                                CHANNELS 3 Zrotation Xrotation Yrotation
                                JOINT LeftHandMiddle2
                                {
                                    OFFSET 0.048813 0.000000 0.000000
                                    CHANNELS 3 Zrotation Xrotation Yrotation
                                    JOINT LeftHandMiddle3
                                    {
                                        OFFSET 0.026625 0.000000 0.000000
                                        CHANNELS 3 Zrotation Xrotation Yrotation
                                        End Site
                                        {
                                            OFFSET 0.023630 0.000000 0.000000
                                        }
                                    }
                                }
                            }
                            JOINT LeftHandRing1
                            {
                                OFFSET 0.075438 0.000000 -0.010295
                                CHANNELS 3 Zrotation Xrotation Yrotation
                                JOINT LeftHandRing2
                                {
                                    OFFSET 0.044375 0.000000 0.000000
                                    CHANNELS 3 Zrotation Xrotation Yrotation
                                    JOINT LeftHandRing3
                                    {
                                        OFFSET 0.022188 0.000000 0.000000
                                        CHANNELS 3 Zrotation Xrotation Yrotation
                                        End Site
                                        {
                                            OFFSET 0.019691 0.000000 0.000000
                                        }
                                    }
                                }
                            }
                            JOINT LeftHandPinky1
                            {
                                OFFSET 0.071000 0.000000 -0.031063
                                CHANNELS 3 Zrotation Xrotation Yrotation
                                JOINT LeftHandPinky2
                                {
                                    OFFSET 0.035500 0.000000 0.000000
                                    CHANNELS 3 Zrotation Xrotation Yrotation
                                    JOINT LeftHandPinky3
                                    {
                                        OFFSET 0.017750 0.000000 0.000000
                                        CHANNELS 3 Zrotation Xrotation Yrotation
                                        End Site
                                        {
                                            OFFSET 0.015753 0.000000 0.000000
                                        }
                                    }
                                }
                            }
                        }
                    }
                }
            }
            JOINT RightShoulder
            {
                OFFSET -0.035163 0.183979 -0.000787
                CHANNELS 3 Zrotation Xrotation Yrotation
                JOINT RightArm
                {
                    OFFSET -0.089258 0.000000 0.000000
                    CHANNELS 3 Zrotation Xrotation Yrotation
                    JOINT RightForeArm
                    {
                        OFFSET -0.285064 0.000000 0.000000
                        CHANNELS 3 Zrotation Xrotation Yrotation
                        JOINT RightHand
                        {
                            OFFSET -0.227012 0.000000 0.000000
                            CHANNELS 3 Zrotation Xrotation Yrotation
                            JOINT RightHandThumb1
                            {
                                OFFSET -0.022188 -0.013313 0.044375
                                CHANNELS 3 Zrotation Xrotation Yrotation
                                JOINT RightHandThumb2
                                {
                                    OFFSET -0.026625 0.000000 0.000000
                                    CHANNELS 3 Zrotation Xrotation Yrotation
                                    JOINT RightHandThumb3
                                    {
                                        OFFSET -0.026625 0.000000 0.000000
                                        CHANNELS 3 Zrotation Xrotation Yrotation
                                        End Site
                                        {
                                            OFFSET -0.023630 0.000000 0.000000
                                        }
                                    }
                                }
                            }
                            JOINT RightHandIndex1
                            {
                                OFFSET -0.079875 0.000000 0.031063
                                CHANNELS 3 Zrotation Xrotation Yrotation
                                JOINT RightHandIndex2
                                {
                                    OFFSET -0.044375 0.000000 0.000000
                                    CHANNELS 3 Zrotation Xrotation Yrotation
                                    JOINT RightHandIndex3
                                    {
                                        OFFSET -0.022188 0.000000 0.000000
                                        CHANNELS 3 Zrotation Xrotation Yrotation
                                        End Site
                                        {
                                            OFFSET -0.019691 0.000000 0.000000
                                        }
                                    }
                                }
                            }
                            JOINT RightHandMiddle1
                            {
                                OFFSET -0.079875 0.000000 0.010295
                                CHANNELS 3 Zrotation Xrotation Yrotation
                                JOINT RightHandMiddle2
                                {
                                    OFFSET -0.048813 0.000000 0.000000
                                    CHANNELS 3 Zrotation Xrotation Yrotation
                                    JOINT RightHandMiddle3
                                    {
                                        OFFSET -0.026625 0.000000 0.000000
                                        CHANNELS 3 Zrotation Xrotation Yrotation
                                        End Site
                                        {
                                            OFFSET -0.023630 0.000000 0.000000
                                        }
                                    }
                                }
                            }
                            JOINT RightHandRing1
                            {
                                OFFSET -0.075438 0.000000 -0.010295
                                CHANNELS 3 Zrotation Xrotation Yrotation
                                JOINT RightHandRing2
                                {
                                    OFFSET -0.044375 0.000000 0.000000
                                    CHANNELS 3 Zrotation Xrotation Yrotation
                                    JOINT RightHandRing3
                                    {
                                        OFFSET -0.022188 0.000000 0.000000
                                        CHANNELS 3 Zrotation Xrotation Yrotation
                                        End Site
                                        {
                                            OFFSET -0.019691 0.000000 0.000000
                                        }
                                    }
                                }
                            }
                            JOINT RightHandPinky1
                            {
                                OFFSET -0.071000 0.000000 -0.031063
                                CHANNELS 3 Zrotation Xrotation Yrotation
                                JOINT RightHandPinky2
                                {
                                    OFFSET -0.035500 0.000000 0.000000
                                    CHANNELS 3 Zrotation Xrotation Yrotation
                                    JOINT RightHandPinky3
                                    {
                                        OFFSET -0.017750 0.000000 0.000000
                                        CHANNELS 3 Zrotation Xrotation Yrotation
                                        End Site
                                        {
                                            OFFSET -0.015753 0.000000 0.000000
                                        }
                                    }
                                }
                            }
                        }
                    }
                }
            }
        }
    }
    JOINT LeftUpLeg
    {
        OFFSET 0.088750 0.000000 0.000000
        CHANNELS 3 Zrotation Xrotation Yrotation
        JOINT LeftLeg
        {
            OFFSET -0.000000 -0.379026 0.000000
            CHANNELS 3 Zrotation Xrotation Yrotation
            JOINT LeftFoot
            {
                OFFSET -0.000000 -0.385721 0.000000
                CHANNELS 3 Zrotation Xrotation Yrotation
                JOINT LeftToeBase
                {
                    OFFSET -0.000000 -0.057688 0.133125
                    CHANNELS 3 Zrotation Xrotation Yrotation
                    End Site
                    {
                        OFFSET -0.000000 0.000000 0.035500
                    }
                }
            }
        }
    }
    JOINT RightUpLeg
    {
        OFFSET -0.088750 0.000000 0.000000
        CHANNELS 3 Zrotation Xrotation Yrotation
        JOINT RightLeg
        {
            OFFSET -0.000000 -0.379026 0.000000
            CHANNELS 3 Zrotation Xrotation Yrotation
            JOINT RightFoot
            {
                OFFSET -0.000000 -0.385721 0.000000
                CHANNELS 3 Zrotation Xrotation Yrotation
                JOINT RightToeBase
                {
                    OFFSET -0.000000 -0.057688 0.133125
                    CHANNELS 3 Zrotation Xrotation Yrotation
                    End Site
                    {
                        OFFSET -0.000000 0.000000 0.035500
                    }
                }
            }
        }
    }
}
MOTION
Frames:    4
Frame Time:    0.040000
1.088555    0.832332    0.721571    -0.559772    -1.408259    -0.739938    1.256481    -2.438455    1.680856    -1.834666    1.069338    0.567987    2.365905    6.300105    -0.299168    -3.523304    11.682384    -0.674786    16.653414    -2.015210    -4.700827    -20.450659    -0.961996    -2.944777    1.984452    -1.558093    0.273504    -14.111489    -6.038359    -8.825871    2.311630    -3.708533    -0.344640    0.000000    0.000000    0.000000    0.000000    0.000000    0.000000    16.143517    0.000000    -0.000000    0.000000    0.000000    0.000000    0.000000    0.000000    0.000000    6.062254    0.000000    -0.000000    -9.507804    0.000000    0.000000    -4.753903    0.000000    0.000000    -4.019010    0.000000    0.000000    -19.015606    0.000000    0.000000    -9.507805    0.000000    0.000000    -14.405766    0.000000    0.000000    -28.811531    0.000000    0.000000    -14.405766    0.000000    0.000000    -13.997089    0.874863    -0.793559    10.188241    0.837524    0.489225    1.205235    2.734138    -4.531445    19.866976    -5.802362    12.962250    3.207124    43.311127    -90.527504    0.000000    0.000000    -45.000004    0.000000    0.000000    -89.999992    0.000000    0.000000    0.000000    0.000000    0.000000    0.000000    0.000000    0.000000    0.000000    0.000000    0.000000    0.000000    0.000000    0.000000    0.000000    0.000000    0.000000    0.000000    0.000000    0.000000    0.000000    0.000000    0.000000    0.000000    0.000000    0.000000    0.000000    0.000000    0.000000    0.000000    0.000000    0.000000    0.000000    0.000000    0.000000    0.000000    6.203124    4.883391    -8.514562    -2.389509    6.864964    -0.275284    -4.644406    -11.971305    5.867658    2.386878    -3.179075    -2.979544    -10.331215    4.614041    1.253923    6.650026    3.983817    -5.640126    5.007455    -3.974739    5.862034    1.863129    -6.171902    0.196285    
1.088527    0.832327    0.721484    -0.557705    -1.408589    -0.753009    1.274576    -2.423950    1.640880    -1.883591    1.053895    0.554776    2.341870    6.344629    -0.330473    -3.514602    11.602744    -0.706308    16.609009    -2.036180    -4.651029    -20.493912    -0.651800    -2.901892    2.213276    -1.767515    0.218425    -14.323124    -6.084640    -8.811183    2.411559    -3.788628    -0.259294    0.000000    0.000000    0.000000    0.000000    0.000000    0.000000    16.436678    0.000000    -0.000000    0.000000    0.000000    0.000000    0.000000    0.000000    0.000000    6.280130    0.000000    -0.000000    -9.464884    0.000000    0.000000    -4.732442    0.000000    0.000000    -3.876415    0.000000    0.000000    -18.929770    0.000000    0.000000    -9.464884    0.000000    0.000000    -14.340734    0.000000    0.000000    -28.681467    0.000000    0.000000    -14.340734    0.000000    0.000000    -14.017317    0.853923    -0.756082    10.230217    0.888846    0.517887    1.200315    2.745856    -4.529244    19.363674    -5.473994    12.581340    3.284893    43.121273    -90.074654    0.000000    0.000000    -45.000004    0.000000    0.000000    -89.999992    0.000000    0.000000    0.000000    0.000000    0.000000    0.000000    0.000000    0.000000    0.000000    0.000000    0.000000    0.000000    0.000000    0.000000    0.000000    0.000000    0.000000    0.000000    0.000000    0.000000    0.000000    0.000000    0.000000    0.000000    0.000000    0.000000    0.000000    0.000000    0.000000    0.000000    0.000000    0.000000    0.000000    0.000000    0.000000    0.000000    6.196952    4.887450    -8.533834    -2.386015    6.850042    -0.195014    -4.664642    -11.951161    5.827857    2.381968    -3.198850    -2.976881    -10.325824    4.594005    1.292705    6.635855    4.001336    -5.578150    5.037267    -3.983826    5.772356    1.863202    -6.061518    0.132824    
1.088432    0.832363    0.721394    -0.575277    -1.397204    -0.762845    1.282820    -2.441129    1.603469    -1.927013    1.060180    0.542744    2.348847    6.297025    -0.296364    -3.524253    11.709577    -0.669651    16.613218    -2.017088    -4.623892    -20.495680    -0.446225    -2.888440    2.288108    -1.905986    0.177861    -14.391100    -6.353275    -8.777729    2.084892    -3.170444    -0.107492    0.000000    0.000000    0.000000    0.000000    0.000000    0.000000    16.284985    0.000000    -0.000000    0.000000    0.000000    0.000000    0.000000    0.000000    0.000000    6.213019    0.000000    -0.000000    -9.395844    0.000000    0.000000    -4.697921    0.000000    0.000000    -3.858948    0.000000    0.000000    -18.791683    0.000000    0.000000    -9.395842    0.000000    0.000000    -14.236123    0.000000    0.000000    -28.472246    0.000000    0.000000    -14.236123    0.000000    0.000000    -13.972162    0.898665    -0.748759    10.239705    0.975809    0.658550    1.152108    2.582377    -4.424156    19.654469    -5.525884    12.428050    3.523971    43.260254    -90.616264    0.000000    0.000000    -45.000004    0.000000    0.000000    -89.999992    0.000000    0.000000    0.000000    0.000000    0.000000    0.000000    0.000000    0.000000    0.000000    0.000000    0.000000    0.000000    0.000000    0.000000    0.000000    0.000000    0.000000    0.000000    0.000000    0.000000    0.000000    0.000000    0.000000    0.000000    0.000000    0.000000    0.000000    0.000000    0.000000    0.000000    0.000000    0.000000    0.000000    0.000000    0.000000    0.000000    6.219640    4.861929    -8.489794    -2.383327    6.866987    -0.201563    -4.646150    -11.948004    5.796079    2.342518    -3.202100    -2.934788    -10.285356    4.592223    1.287906    6.605510    3.967587    -5.503958    5.034533    -3.959248    5.706505    1.867929    -6.181655    0.193613    
1.088347    0.832387    0.721320    -0.579550    -1.396608    -0.781494    1.247674    -2.441760    1.601627    -1.925512    1.066600    0.542365    2.511176    6.523382    -0.304293    -3.774342    11.241438    -0.713609    16.622900    -2.052355    -4.635830    -20.530413    -0.440935    -2.883009    2.298644    -1.777320    0.189517    -14.269525    -6.464979    -8.750345    1.877700    -2.814624    -0.052130    0.000000    0.000000    0.000000    0.000000    0.000000    0.000000    16.032913    0.000000    -0.000000    0.000000    0.000000    0.000000    0.000000    0.000000    0.000000    6.061351    0.000000    -0.000000    -9.361400    0.000000    0.000000    -4.680700    0.000000    0.000000    -3.910209    0.000000    0.000000    -18.722801    0.000000    0.000000    -9.361400    0.000000    0.000000    -14.183940    0.000000    0.000000    -28.367880    0.000000    0.000000    -14.183940    0.000000    0.000000    -13.947476    0.907688    -0.745952    10.243573    0.972565    0.672562    1.155209    2.509022    -4.397675    19.554588    -5.471639    12.378121    3.578112    43.247765    -90.621254    0.000000    0.000000    -45.000004    0.000000    0.000000    -89.999992    0.000000    0.000000    0.000000    0.000000    0.000000    0.000000    0.000000    0.000000    0.000000    0.000000    0.000000    0.000000    0.000000    0.000000    0.000000    0.000000    0.000000    0.000000    0.000000    0.000000    0.000000    0.000000    0.000000    0.000000    0.000000    0.000000    0.000000    0.000000    0.000000    0.000000    0.000000    0.000000    0.000000    0.000000    0.000000    0.000000    6.227114    4.855646    -8.461354    -2.378595    6.877037    -0.231576    -4.664367    -11.958193    5.813838    2.431769    -3.338065    -3.049095    -10.253761    4.563607    1.128296    6.549403    4.025150    -5.195628    5.040840    -3.984432    5.569670    1.855674    -6.177542    0.212388    
